<?xml version="1.0" encoding="UTF-8" standalone="no"?>
<!-- Created with Inkscape (http://www.inkscape.org/) -->

<svg
   xmlns:dc="http://purl.org/dc/elements/1.1/"
   xmlns:cc="http://creativecommons.org/ns#"
   xmlns:rdf="http://www.w3.org/1999/02/22-rdf-syntax-ns#"
   xmlns:svg="http://www.w3.org/2000/svg"
   xmlns="http://www.w3.org/2000/svg"
   xmlns:sodipodi="http://sodipodi.sourceforge.net/DTD/sodipodi-0.dtd"
   xmlns:inkscape="http://www.inkscape.org/namespaces/inkscape"
   width="210mm"
   height="297mm"
   viewBox="0 0 210 297"
   version="1.1"
   id="svg8"
   inkscape:version="0.92.5 (2060ec1f9f, 2020-04-08)"
   sodipodi:docname="drawing.svg">
  <defs
     id="defs2" />
  <sodipodi:namedview
     id="base"
     pagecolor="#ffffff"
     bordercolor="#666666"
     borderopacity="1.0"
     inkscape:pageopacity="0.0"
     inkscape:pageshadow="2"
     inkscape:zoom="1.4"
     inkscape:cx="229.74155"
     inkscape:cy="1089.0839"
     inkscape:document-units="mm"
     inkscape:current-layer="layer1"
     showgrid="false"
     inkscape:snap-bbox="true"
     inkscape:snap-global="true"
     inkscape:bbox-paths="false"
     inkscape:object-paths="true"
     showguides="false"
     inkscape:window-width="1600"
     inkscape:window-height="847"
     inkscape:window-x="0"
     inkscape:window-y="22"
     inkscape:window-maximized="1" />
  <metadata
     id="metadata5">
    <rdf:RDF>
      <cc:Work
         rdf:about="">
        <dc:format>image/svg+xml</dc:format>
        <dc:type
           rdf:resource="http://purl.org/dc/dcmitype/StillImage" />
        <dc:title></dc:title>
      </cc:Work>
    </rdf:RDF>
  </metadata>
  <g
     inkscape:label="Layer 1"
     inkscape:groupmode="layer"
     id="layer1">
    <g
       id="g2604"
       transform="translate(-60.665179,-3.5907738)">
      <g
         transform="translate(-81.784475,-157.15448)"
         id="g821">
        <rect
           style="fill:#ffaf00;fill-opacity:1;stroke:none;stroke-width:0.1894109"
           id="rect815"
           width="22.404661"
           height="14.749889"
           x="142.97855"
           y="171.13393" />
        <ellipse
           style="fill:#ffaf00;fill-opacity:1;stroke:none;stroke-width:0.26778957"
           id="path817"
           cx="154.18088"
           cy="171.883"
           rx="11.228577"
           ry="10.961308" />
        <path
           inkscape:connector-curvature="0"
           d="m 150.8848,184.0682 c -0.16673,0.91481 -0.2115,1.84563 -0.31926,2.76864 -0.059,0.81171 -0.22749,1.59269 -0.5803,2.32595 -0.0254,0.0455 -0.37604,0.67554 -0.40392,0.66947 -0.0395,-0.009 0.0362,-0.0779 0.0712,-0.0981 0.56891,0.0235 1.13822,0.0193 1.70742,0.014 0.59926,-0.009 1.19853,-0.009 1.79783,-0.01 0.59547,-0.001 1.19093,-0.003 1.78639,-0.004 0.3666,-2.7e-4 0.18385,-2.2e-4 0.54827,-5.3e-4 0,0 -3.19182,2.31898 -3.19182,2.31898 v 0 c -0.36355,-2.6e-4 -0.18127,-1.2e-4 -0.54683,-5.3e-4 -0.59288,-7.9e-4 -1.18577,-0.002 -1.77865,-5.3e-4 -0.59924,0.003 -1.19845,0.01 -1.7977,0.0108 -0.60264,7.9e-4 -1.22179,0.0366 -1.81192,-0.0992 -0.63296,-0.42235 -0.29532,-0.69808 0.0384,-1.19251 0.40261,-0.67791 0.61058,-1.42477 0.67672,-2.21161 0.11519,-0.91455 0.17692,-1.8316 0.2434,-2.75076 0,0 3.56075,-1.74083 3.56075,-1.74083 z"
           id="path2576"
           style="fill:#ff5900;fill-opacity:1;stroke:none;stroke-width:0.26458332" />
        <path
           inkscape:connector-curvature="0"
           d="m 159.18778,183.77151 c -0.0845,0.89063 -0.33543,1.75377 -0.5396,2.62183 -0.11587,0.66392 -0.2797,1.31791 -0.40913,1.97902 -0.0916,0.48269 -0.10874,0.97387 -0.12169,1.46356 1.3e-4,0.39387 0.34511,0.38674 0.65722,0.4189 0.50617,0.0337 1.01401,0.0249 1.52096,0.0218 0.53756,-0.004 1.07512,-0.006 1.61268,-0.007 0,0 -3.19201,2.32036 -3.19201,2.32036 v 0 c -0.53746,0.002 -1.07492,0.005 -1.61237,0.007 -0.52412,5.3e-4 -1.05255,0.0109 -1.57144,-0.0742 -0.48569,-0.12032 -0.88733,-0.35368 -0.94468,-0.89776 0.007,-0.51081 0.0331,-1.02269 0.10752,-1.52858 0.11944,-0.67665 0.32106,-1.33393 0.43299,-2.01227 0.20016,-0.83146 0.45843,-1.65732 0.52749,-2.51326 0,0 3.53206,-1.79968 3.53206,-1.79968 z"
           id="path2578"
           style="fill:#ff5900;fill-opacity:1;stroke:none;stroke-width:0.26458332" />
      </g>
      <circle
         r="1.2605932"
         cy="14.505046"
         cx="78.635124"
         id="path827"
         style="fill:#000000;fill-opacity:1;stroke:none;stroke-width:0.26458332" />
      <path
         sodipodi:nodetypes="cccc"
         inkscape:connector-curvature="0"
         id="rect829"
         d="m 83.580117,17.970832 7.04923,2.10475 -7.04923,2.17156 z"
         style="fill:#ff5900;fill-opacity:1;stroke:none;stroke-width:0.26458332" />
    </g>
    <g
       id="g2595"
       transform="translate(-63.409078,-203.13788)">
      <path
         inkscape:connector-curvature="0"
         d="m 95.565158,213.29593 c 0.19647,-0.9422 0.54065,-1.86987 1.06594,-2.68109 0.14329,-0.22109 0.3112,-0.42543 0.46679,-0.6384 1.69803,-2.11538 4.115402,-3.20712 6.440242,-4.51664 1.32613,-0.5865 2.21096,-0.20878 3.4356,0.39736 2.23218,1.25807 4.42664,2.59488 6.49731,4.1052 1.28495,1.0332 2.54849,2.11327 3.58843,3.40083 0.47172,0.58398 0.67237,0.9196 1.07687,1.5345 0.67453,1.11031 1.18475,2.33972 1.17648,3.65929 -0.001,0.30726 -0.0443,0.61269 -0.065,0.91901 -0.37078,2.47508 -1.35862,4.75812 -2.50536,6.95918 -1.14389,2.0107 -2.87963,3.50531 -4.82287,4.70568 -1.6158,0.83126 -3.70336,2.5606 -5.80771,2.45434 -0.92536,-0.0492 -1.32652,-0.25506 -2.23129,-0.55237 -3.05202,-1.26875 -5.858482,-3.07974 -8.458082,-5.10993 -0.52662,-0.41115 -1.02886,-0.85293 -1.54327,-1.27939 0,0 2.56484,-1.60177 2.56484,-1.60177 v 0 c 0.49904,0.42839 0.98218,0.87637 1.49718,1.2856 2.584292,2.05368 5.457472,3.79273 8.571722,4.90515 1.17294,0.30134 1.85776,0.51563 3.05906,0.27426 0.22798,-0.0443 0.45202,-0.11276 0.67276,-0.18563 0.23438,-0.0778 0.89099,-0.41017 0.69044,-0.26688 -0.6541,0.46876 -1.37639,0.83451 -2.06462,1.25177 1.98254,-1.14034 3.76678,-2.59488 4.96744,-4.57426 0.44414,-0.83471 0.79089,-1.44602 1.16811,-2.31441 0.62396,-1.43651 1.04969,-2.94049 1.30859,-4.4839 0.0197,-0.29002 0.0625,-0.57891 0.066,-0.86957 0.0148,-1.25916 -0.46334,-2.44726 -1.08179,-3.52098 -0.38949,-0.62706 -0.55217,-0.92339 -1.01375,-1.51988 -0.99523,-1.28604 -2.21917,-2.36556 -3.48571,-3.37571 -2.07575,-1.50664 -4.27385,-2.85226 -6.58304,-3.9729 -1.27324,-0.53863 -1.99282,-0.75341 -3.28989,-0.1359 0.7668,-0.45547 1.5342,-0.9097 2.30037,-1.3661 0.20287,-0.12113 -0.41115,0.2329 -0.61096,0.35994 -0.92477,0.58664 -1.78366,1.2758 -2.47917,2.12705 -0.157072,0.19794 -0.327442,0.38653 -0.471222,0.59447 -0.51386,0.74268 -0.87282,1.62131 -1.01045,2.51245 0,0 -3.09007,1.51968 -3.09007,1.51968 z"
         id="path2179"
         style="fill:#ff5900;fill-opacity:1;stroke:none;stroke-width:1.30279708" />
      <path
         inkscape:connector-curvature="0"
         d="m 108.49169,218.46914 c 1.98962,0.10931 3.97639,0.0295 5.95784,-0.15954 2.15576,-0.20927 4.30048,-0.50721 6.44221,-0.82629 0.60116,-0.13738 0.33778,-0.0295 0.8029,-0.2846 0,0 -2.67406,2.10932 -2.67406,2.10932 v 0 c -0.48944,0.14624 -0.22305,0.0837 -0.80285,0.17234 -2.10179,0.24078 -4.20058,0.50751 -6.30665,0.71048 -2.06147,0.19499 -4.12495,0.27229 -6.19513,0.29494 0,0 2.77574,-2.0167 2.77574,-2.0167 z"
         id="path2181"
         style="fill:#ff5900;fill-opacity:1;stroke:none;stroke-width:1.30279708" />
      <path
         inkscape:connector-curvature="0"
         d="m 124.18513,214.70403 c -0.4732,1.20219 -0.79064,2.46203 -1.13685,3.70548 -0.32399,1.22577 -0.63529,2.45508 -0.83436,3.70799 -0.0492,0.55562 -0.15904,1.10173 -0.24374,1.65213 -0.0576,0.64854 -0.26097,1.26886 -0.39588,1.90301 -0.096,0.486 -0.15166,0.97957 -0.1359,1.47497 0,0 -3.04079,1.57109 -3.04079,1.57109 v 0 c -0.0394,-0.5213 0.0148,-1.04467 0.10488,-1.55927 0.12703,-0.62736 0.33975,-1.23778 0.3885,-1.87716 0.0788,-0.56187 0.20385,-1.11513 0.27771,-1.67774 0.23142,-1.2758 0.58304,-2.52417 0.90527,-3.77923 0.33286,-1.22164 0.65272,-2.44682 0.97499,-3.67116 0,0 3.13543,-1.45011 3.13543,-1.45011 z"
         id="path2183"
         style="fill:#ff5900;fill-opacity:1;stroke:none;stroke-width:1.30279708" />
      <path
         inkscape:connector-curvature="0"
         d="m 123.1118,220.60692 c 0.92147,0.18071 1.83595,0.12557 2.75358,-0.0345 0.57783,-0.16299 1.16235,-0.33729 1.6994,-0.6122 0.16446,-0.0842 0.63756,-0.37274 0.47615,-0.28362 -2.46508,1.3629 -3.17595,1.93265 -2.00873,1.04605 0.77351,-0.60984 1.27959,-1.428 1.70433,-2.29959 0.15166,-0.35699 0.3176,-0.71461 0.39195,-1.09809 0.01,-0.0443 -0.0295,-0.15511 0.01,-0.13246 0.0492,0.0296 0.0246,0.10685 0.0394,0.16003 0.97588,-0.50116 1.95176,-1.00232 2.92764,-1.50348 -0.57561,0.82526 -0.894,1.80552 -1.26846,2.73295 -0.47467,1.00128 -0.76184,2.05353 -0.90724,3.14773 -0.12015,0.78981 -0.0985,1.54204 0.2137,2.28014 0.16741,0.2718 0.53469,1.11001 0.98858,0.82575 0.0842,-0.0527 0.14033,-0.14033 0.21025,-0.21075 -0.86706,0.46975 -1.73407,0.93994 -2.60113,1.40988 0,0 3.12726,-1.30569 3.12726,-1.30569 v 0 c -1.06412,0.67848 -2.12824,1.35685 -3.1923,2.03532 -0.10981,0.0246 -0.21715,0.0729 -0.32892,0.0694 -0.59694,-0.0197 -0.91842,-0.72653 -1.17378,-1.15688 -0.33729,-0.79355 -0.41509,-1.60206 -0.26835,-2.45558 0.1487,-1.12094 0.38751,-2.2145 0.89483,-3.23588 0.37619,-0.92757 0.70959,-1.87342 1.13354,-2.78076 1.04733,-0.59048 2.0559,-1.25565 3.14193,-1.77139 0.13246,-0.063 0.16151,0.27328 0.13639,0.41755 -0.0704,0.40918 -0.2521,0.79109 -0.4013,1.17437 -0.41263,0.90788 -0.88572,1.77858 -1.64987,2.44573 -1.3826,1.13433 -0.4274,0.38456 -3.7329,2.31544 -0.68886,0.40229 -1.47103,0.62332 -2.24242,0.80004 -0.96337,0.13393 -1.92005,0.14624 -2.88509,0.005 0,0 2.81433,-1.98436 2.81433,-1.98436 z"
         id="path2185"
         style="fill:#ff5900;fill-opacity:1;stroke:none;stroke-width:1.30279708" />
      <path
         inkscape:connector-curvature="0"
         d="m 136.30767,216.76742 c -0.0394,1.1398 -0.21764,2.26571 -0.38654,3.39128 -0.17824,1.25501 -0.34812,2.52018 -0.69614,3.74151 0,0 -3.06384,1.43362 -3.06384,1.43362 v 0 c 0.48649,-1.16895 0.56685,-2.4737 0.77863,-3.71124 0.16101,-1.08741 0.34467,-2.1857 0.29346,-3.28866 0,0 3.07443,-1.56651 3.07443,-1.56651 z"
         id="path2187"
         style="fill:#ff5900;fill-opacity:1;stroke:none;stroke-width:1.30279708" />
      <path
         inkscape:connector-curvature="0"
         d="m 132.66133,215.90819 c 1.10419,0.0246 2.20903,0.0443 3.31269,1e-4 1.13694,-0.098 2.26384,-0.28165 3.39856,-0.39934 0.5634,-0.0753 1.10701,-0.2393 1.65987,-0.36535 0,0 -2.71665,2.06993 -2.71665,2.06993 v 0 c -0.55315,0.13098 -1.10543,0.27131 -1.67365,0.32055 -1.11754,0.10488 -2.23016,0.25703 -3.34987,0.33877 -1.13699,0.0394 -2.27467,0.0246 -3.41196,0.0556 0,0 2.78101,-2.02055 2.78101,-2.02055 z"
         id="path2189"
         style="fill:#ff5900;fill-opacity:1;stroke:none;stroke-width:1.30279708" />
      <path
         inkscape:connector-curvature="0"
         d="m 144.15434,215.91498 c -0.60595,0.69852 -0.95899,1.55267 -1.24138,2.42156 -0.21567,0.79635 -0.36093,1.61712 -0.26245,2.44051 0.16298,0.62632 0.54444,1.07258 1.13881,1.31041 0.53391,0.16692 1.0786,0.25802 1.63471,0.30529 0.38505,-0.003 0.75346,-0.0719 1.10676,-0.22749 0.14378,-0.0635 0.55468,-0.29495 0.41853,-0.21715 -2.71881,1.55509 -3.18393,1.97466 -2.06412,1.05826 0.73845,-0.7415 1.2691,-1.65376 1.69778,-2.60098 0.26836,-0.59644 0.35551,-1.23478 0.38899,-1.88081 0.0246,0.0296 -0.0783,-0.36634 -0.0758,-0.35551 0.36142,1.41219 3.46686,-2.83703 2.93813,-1.30248 -0.23192,1.02462 -0.50343,2.03955 -0.75548,3.05925 -0.28264,1.29628 -0.50018,2.60428 -0.81728,3.89298 -0.31858,1.27285 -0.8707,2.46794 -1.39634,3.66466 -0.53622,1.17786 -1.13044,2.32253 -1.81049,3.42323 -0.69162,1.19219 -1.60053,2.21357 -2.60713,3.14503 -0.98475,0.86332 -2.05201,1.61856 -3.14518,2.33583 -1.37979,0.8614 -1.05905,0.66862 -3.68839,2.13015 -0.38407,0.2137 -0.83264,0.3043 -1.26443,0.29052 -0.78926,-0.10144 -1.22818,-0.69822 -1.67645,-1.28944 -0.5701,-0.82299 -0.69502,-1.80114 -0.72589,-2.77657 0.0295,-1.35379 0.36929,-2.42328 1.09139,-3.55938 0.53061,-0.72279 1.26304,-1.22996 2.03581,-1.66415 3.59257,-2.01843 2.32209,-1.46651 4.27321,-2.26163 1.43715,-0.54562 2.89918,-1.02147 4.3419,-1.55198 1.13127,-0.4077 2.22902,-0.89187 3.32056,-1.39348 0.8127,-0.36733 1.66873,-0.54528 2.5483,-0.65055 0.46039,-0.0345 0.90921,-0.0443 1.34513,-0.20385 0,0 -2.71537,2.08431 -2.71537,2.08431 v 0 c -0.4466,0.0793 -0.89724,0.10094 -1.34783,0.14919 -0.85707,0.12507 -1.68513,0.35207 -2.47296,0.71895 -1.08249,0.48944 -2.18132,0.93934 -3.29915,1.34262 -1.43864,0.51425 -2.89391,0.9837 -4.31314,1.55065 -1.54923,0.67271 -0.81802,0.39342 1.42469,-0.97967 0.19549,-0.11965 -0.39982,0.22453 -0.59653,0.34221 -0.5476,0.32695 -1.0719,0.67872 -1.48059,1.17786 -0.25851,0.36339 -0.4663,0.6186 -0.65159,1.02803 -0.33089,0.73101 -0.47171,1.54218 -0.51327,2.33701 0.0197,0.90143 0.12507,1.81383 0.65277,2.57419 0.4013,0.51495 0.80098,1.02468 1.51599,0.99829 0.2915,-0.0443 0.5533,-0.11572 0.82575,-0.2334 0.10931,-0.0492 0.42543,-0.21518 0.3235,-0.15363 -0.68847,0.41312 -3.69582,2.15758 -2.08052,1.21331 1.10272,-0.71284 2.19318,-1.44158 3.192,-2.2985 1.01828,-0.89128 1.94384,-1.87814 2.63014,-3.05389 0.68837,-1.08553 1.29702,-2.20854 1.8294,-3.37965 0.52843,-1.18195 1.09169,-2.35996 1.4242,-3.61567 0.33729,-1.28407 0.55439,-2.59256 0.8225,-3.89209 0.24176,-0.99976 0.50923,-1.99484 0.66035,-3.0139 0.23044,-1.51983 3.28502,-3.25799 3.29526,-1.36827 -0.0295,0.68635 -0.0931,1.37275 -0.36979,2.01124 -0.42789,0.9807 -0.9616,1.92073 -1.65918,2.73663 -1.25659,1.26773 -0.38899,0.45892 -3.69479,2.31594 -0.50362,0.28313 -1.10158,0.34911 -1.66695,0.32498 -0.58211,-0.0684 -1.16412,-0.17234 -1.70862,-0.39736 -0.6471,-0.35453 -1.07795,-0.90015 -1.28702,-1.61437 -0.13738,-0.88819 0.005,-1.71994 0.22404,-2.5872 0.26097,-0.88021 0.58443,-1.74859 1.11661,-2.50516 0,0 3.17068,-1.35463 3.17068,-1.35463 z"
         id="path2191"
         style="fill:#ff5900;fill-opacity:1;stroke:none;stroke-width:1.30279708" />
      <path
         inkscape:connector-curvature="0"
         d="m 150.26704,219.0902 c 0.49707,-0.95894 1.31489,-1.64332 2.1561,-2.28866 1.89213,-1.23094 3.79086,-2.5445 6.00575,-3.07476 0.83653,-0.18711 1.66868,-0.1039 2.48552,0.12113 0.77833,0.25653 1.40608,0.63381 1.9038,1.28712 0.48057,0.73825 0.41558,1.60674 0.37914,2.44755 -0.0517,1.10942 -0.18465,2.21278 -0.49417,3.28049 -0.23832,0.72554 -0.58245,1.40928 -1.16703,1.91128 -2.14906,1.27329 -2.78494,2.18747 -4.83596,1.78868 -0.68104,-0.16003 -1.43371,-0.2915 -2.01991,-0.69832 -0.8252,-1.30002 2.91449,-2.08071 3.01834,-2.13168 0.10192,-0.0502 0.79344,0.20041 0.9034,0.2398 0.66291,0.27377 1.21351,0.73323 1.7419,1.20647 0.5893,0.52573 0.78817,1.26851 1.02694,1.98997 0.29297,0.79768 0.40031,1.63997 0.46482,2.48207 0.0345,0.92289 -0.21567,1.80226 -0.56187,2.64692 -0.45744,0.94624 -1.03679,1.82664 -1.65214,2.67622 -0.53814,0.73096 -1.14123,1.40924 -1.82418,2.00666 -0.70156,0.59048 -1.51234,1.03068 -2.2955,1.50141 -1.53622,0.94964 -2.85348,2.02158 -4.62044,2.14946 -0.65194,0.0763 -1.25281,-0.14871 -1.84472,-0.39343 -0.76055,-0.30725 -1.33961,-0.87385 -1.90931,-1.44291 -0.57231,-0.58462 -0.73923,-1.06737 -0.6247,-1.87401 0.21911,-0.99563 0.90532,-1.72664 1.65056,-2.37473 1.88036,-1.35212 3.9593,-2.39836 6.05903,-3.3636 0.96081,-0.46876 1.93654,-0.89838 2.9269,-1.29993 0.84583,-0.31562 1.65981,-0.69103 2.45095,-1.12429 0,0 -2.64299,2.12642 -2.64299,2.12642 v 0 c -0.79448,0.41656 -1.6217,0.7543 -2.45587,1.08297 -0.98179,0.40229 -1.943,0.8486 -2.90317,1.30002 -0.17775,0.0817 -0.35551,0.16299 -0.53297,0.24571 -0.18218,0.0847 -0.36486,0.16889 -0.54592,0.25605 -1.23773,0.59506 -1.25029,0.69373 1.76643,-1.09234 0.17086,-0.10143 -0.34665,0.19401 -0.51653,0.29692 -0.16643,0.10143 -0.32793,0.21074 -0.4919,0.31612 -0.72594,0.57172 -1.43199,1.22331 -1.70083,2.13896 -0.17284,0.74219 -0.0542,1.02729 0.46137,1.58813 0.53991,0.54006 1.09524,1.06155 1.82876,1.32602 0.58147,0.2073 1.16008,0.34419 1.78035,0.24177 1.34912,-0.1881 3.57421,-1.63609 -1.30233,1.11478 0.7927,-0.45103 1.59319,-0.90837 2.32469,-1.45267 0.70753,-0.56044 1.31308,-1.22488 1.86668,-1.93728 0.62559,-0.82363 1.1977,-1.68818 1.68306,-2.60256 0.34861,-0.79315 0.61135,-1.61737 0.61258,-2.49413 -0.0522,-0.81609 -0.13885,-1.63278 -0.41952,-2.40727 -0.23093,-0.66262 -0.40573,-1.34734 -0.95534,-1.82822 -0.49983,-0.4402 -1.02187,-0.86972 -1.66405,-1.08287 -0.22355,-0.0566 -0.36438,-0.10882 -0.59634,-0.10439 -0.0788,0.001 -0.30135,0.0783 -0.23439,0.0394 2.80853,-1.73427 3.65983,-0.94373 2.6389,-1.81798 0.54277,0.38309 1.25172,0.46729 1.88509,0.599 0.356,0.0394 0.39638,0.0591 0.74179,0.0345 1.26502,-0.0931 3.089,-1.53893 -1.86839,1.38683 0.66985,-0.37372 1.03196,-1.02457 1.30273,-1.72579 0.34517,-1.03842 0.50564,-2.11312 0.54163,-3.20732 0.0345,-0.7511 0.0926,-1.54593 -0.30922,-2.21716 -0.43971,-0.5761 -1.07067,-0.90823 -1.76297,-1.10371 -0.79266,-0.17135 -1.58813,-0.20533 -2.3799,0.01 -0.38259,0.1034 -0.52662,0.13295 -0.90822,0.27919 -0.17677,0.0679 -0.68261,0.3235 -0.52322,0.22158 4.42245,-2.83635 2.24606,-1.26802 1.21887,-0.71668 -0.81048,0.58949 -1.64258,1.19809 -2.12301,2.10297 0,0 -3.13957,1.42041 -3.13957,1.42041 z"
         id="path2193"
         style="fill:#ff5900;fill-opacity:1;stroke:none;stroke-width:1.30279708" />
      <path
         inkscape:connector-curvature="0"
         d="m 147.68925,224.46371 c 0.26934,-0.69698 0.64592,-1.34507 1.05879,-1.9653 0.34813,-0.48057 0.67035,-0.9805 0.8906,-1.53282 0.11128,-0.37472 0.12162,-0.76504 0.23044,-1.14138 0.0876,-0.25457 0.21124,-0.49308 0.33532,-0.73096 0,0 3.13701,-1.4247 3.13701,-1.4247 v 0 c -0.10734,0.24029 -0.25949,0.45498 -0.34862,0.70359 -0.17677,0.36043 -0.17234,0.74479 -0.23635,1.13403 -0.18218,0.59979 -0.5373,1.12532 -0.89276,1.63564 -0.41706,0.57852 -0.79428,1.1886 -1.05309,1.85599 0,0 -3.12134,1.46591 -3.12134,1.46591 z"
         id="path2199"
         style="fill:#ff5900;fill-opacity:1;stroke:none;stroke-width:1.30279708" />
      <path
         inkscape:connector-curvature="0"
         d="m 160.46214,226.26401 c 0.0783,-0.0345 0.15658,-0.065 0.23487,-0.0985 0.23586,-0.10192 0.91113,-0.47467 0.68842,-0.34665 -4.59331,2.64225 -2.74422,1.62688 -1.7645,0.93984 0.76169,-0.53592 1.36527,-1.23833 1.89651,-1.99479 0.56734,-0.84363 0.98504,-1.77283 1.33252,-2.72472 0.292,-0.8261 0.3693,-1.69769 0.40623,-2.56632 -0.0148,-0.75938 0.17431,-1.49935 0.30726,-2.24173 0.0591,-0.53563 0.21123,-1.05063 0.40081,-1.55277 1.4467,-0.69546 2.92374,-2.68208 3.22283,-1.25482 0.10537,0.50327 -0.0246,1.03875 -0.1103,1.53391 -0.2137,0.9291 -0.37668,1.86839 -0.54105,2.80715 -0.12753,0.71289 -0.18661,1.43484 -0.21567,2.15767 -0.003,0.47615 -0.0591,0.95742 0.0591,1.42298 0.16545,0.4727 0.48994,0.75927 0.95249,0.91738 0.51042,0.14033 0.84968,0.10833 1.30564,-0.15412 1.22818,-0.72362 -0.72628,0.42937 -2.40225,1.37211 -0.0965,0.0547 0.18711,-0.11965 0.27771,-0.18366 0.34665,-0.24522 0.66104,-0.52716 0.97691,-0.81004 0.71693,-0.61742 1.32095,-1.32923 1.78799,-2.15015 0.35896,-0.66124 0.56148,-1.3823 0.6703,-2.12252 0.062,-0.52716 0.063,-1.05895 0.062,-1.58901 -0.01,-0.48304 0.003,-0.96662 -0.0148,-1.44946 -0.19253,-1.17683 -0.0793,-0.34222 3.07053,-1.4634 0.097,-0.0345 -0.0197,0.20582 -0.0345,0.30774 -0.0635,0.43282 -0.18662,0.84456 -0.31513,1.26147 -0.34271,0.95441 -0.69812,1.90434 -0.98012,2.87884 -0.19498,0.69768 -0.27623,1.41584 -0.30774,2.1371 -0.004,0.42641 -0.10587,0.93043 0.27081,1.22345 0.29347,0.17136 0.65223,0.1428 0.981,0.14625 0.69881,0.062 1.3505,-0.14428 1.99953,-0.37619 1.31617,-0.39146 4.03099,-2.09702 -1.08017,0.81644 0,0 3.17236,-1.24247 3.17236,-1.24247 v 0 c -1.61201,0.94875 -3.00682,1.9718 -4.76512,2.5033 -0.69112,0.21714 -1.38703,0.36978 -2.117,0.31217 -0.40623,-0.0197 -0.80817,-0.0625 -1.12193,-0.35157 -0.40081,-0.42543 -0.44167,-0.92762 -0.39096,-1.49378 0.0345,-0.75159 0.1039,-1.50013 0.31218,-2.22681 0.27082,-0.97795 0.61737,-1.93388 0.96963,-2.88499 0.12556,-0.389 0.25013,-0.77375 0.30873,-1.17969 0.0148,-0.0881 -0.0507,-0.21813 0.0246,-0.26687 3.14203,-2.03911 3.23115,-2.91514 3.07235,-1.66711 -0.0148,0.48649 9.4e-4,0.97307 -0.003,1.45951 0.001,0.54523 0.0148,1.09218 -0.0443,1.63515 -0.10341,0.77818 -0.30677,1.53539 -0.64603,2.24651 -0.44759,0.85598 -1.01857,1.61397 -1.74736,2.25487 -1.3732,1.27999 -2.87712,2.32436 -4.67412,3.03099 -0.49761,0.15905 -0.98587,0.12852 -1.4728,-0.068 -0.51712,-0.25358 -0.8968,-0.63627 -1.11001,-1.18051 -0.15609,-0.49974 -0.12409,-1.00705 -0.10094,-1.52599 0.0345,-0.74248 0.10832,-1.48236 0.23192,-2.21573 0.16889,-0.93668 0.32744,-1.8749 0.53493,-2.80419 0.0345,-0.19893 0.11621,-0.60767 0.13689,-0.81344 0.18514,-1.80675 -1.42706,-0.0758 2.97225,-2.3277 -0.3693,0.28165 -0.42346,1.01477 -0.51195,1.437 -0.1359,0.73131 -0.34123,1.45666 -0.33729,2.20584 -0.0443,0.89862 -0.10291,1.80537 -0.38308,2.6674 -0.34369,0.97086 -0.74918,1.92345 -1.29495,2.80006 -0.51155,0.78621 -1.09327,1.525 -1.84284,2.10076 -1.54957,1.15565 -3.24686,2.12597 -5.02342,2.88682 0,0 2.71551,-2.13542 2.71551,-2.13542 z"
         id="path2203"
         style="fill:#ff5900;fill-opacity:1;stroke:none;stroke-width:1.30279708" />
      <path
         inkscape:connector-curvature="0"
         d="m 179.01768,216.7786 c -0.43281,-0.55484 -0.88025,-1.10263 -1.39235,-1.58626 -0.33236,-0.21222 -0.75415,-0.25949 -1.10951,-0.0571 -0.0857,0.0492 -0.31809,0.23191 -0.23143,0.18464 0.90645,-0.49239 1.79616,-1.01487 2.69424,-1.52229 -0.46137,0.48452 -0.80684,1.07087 -1.10597,1.66617 -0.24028,0.49043 -0.33482,1.02172 -0.38012,1.5605 -0.0148,0.47024 -0.12163,0.93117 -0.17973,1.39737 -0.0522,0.46384 -0.0606,0.93122 -0.066,1.39762 -0.004,0.46531 -0.003,0.93023 -0.001,1.3953 -0.0246,0.41263 0.0246,0.75159 0.28657,1.07909 0.34419,0.35994 0.49427,0.32547 0.94299,0.26983 0.64691,-0.12212 1.26058,-0.35157 1.85367,-0.63243 1.07707,-0.51052 2.74679,-1.47616 -2.169,1.2724 -0.096,0.0537 0.24669,-0.18121 0.47516,-0.43676 0.28412,-0.30775 0.36388,-0.69482 0.41115,-1.09652 0.0694,-0.46925 0.16299,-0.93313 0.21272,-1.40495 0.0675,-0.4599 0.17283,-0.91172 0.22453,-1.37378 0.0492,-0.35305 0.0507,-0.6964 -0.0551,-1.03837 -0.10439,-0.28854 -0.26195,-0.54981 -0.39933,-0.82185 -0.10439,-0.227 -0.15215,-0.46729 -0.28214,-0.68251 0,0 2.98771,-1.73806 2.98771,-1.73806 v 0 c 0.1423,0.22354 0.21911,0.46088 0.29839,0.71038 0.1423,0.28903 0.30627,0.56512 0.40967,0.87252 0.13492,0.38456 0.19401,0.76484 0.12655,1.17033 -0.0556,0.46088 -0.13098,0.91679 -0.23389,1.36974 -0.0394,0.4732 -0.1167,0.93886 -0.21173,1.40392 -0.0295,0.44562 -0.0739,0.89902 -0.32153,1.28422 -1.0265,1.31302 -2.64255,1.959 -4.14691,2.62649 -0.62638,0.25555 -1.26777,0.48846 -1.94684,0.54991 -0.46482,3.4e-4 -0.83894,-0.1748 -1.12886,-0.54838 -0.28904,-0.389 -0.44956,-0.7838 -0.39441,-1.27565 -5.9e-4,-0.4663 -0.001,-0.93255 1e-4,-1.3988 0.004,-0.47713 0.01,-0.95476 0.0517,-1.43021 0.0492,-0.46483 0.14722,-0.92123 0.1876,-1.38526 0.0345,-0.5765 0.11276,-1.14989 0.34468,-1.68488 0.28559,-0.63194 0.6507,-1.214 1.04343,-1.78489 1.04428,-0.63947 2.07885,-1.29505 3.13287,-1.91837 0.51047,-0.30184 1.15413,-0.0975 1.58281,0.23684 0.49889,0.50293 0.9419,1.05614 1.434,1.56543 0,0 -2.94393,1.80404 -2.94393,1.80404 z"
         id="path2211"
         style="fill:#ff5900;fill-opacity:1;stroke:none;stroke-width:1.30279708" />
      <path
         inkscape:connector-curvature="0"
         d="m 182.88225,212.8707 c 0.43971,0.49751 0.62761,1.11035 0.74554,1.74963 0.11965,0.69349 0.13294,1.38973 0.0679,2.0883 -0.0537,0.7156 -0.18908,1.41795 -0.35354,2.11513 -0.12655,0.61756 -0.28264,1.22887 -0.39638,1.849 -0.0813,0.45251 -0.0995,0.91177 -0.11128,1.37019 0.004,0.37274 0.14624,0.66429 0.44955,0.87715 0.32794,0.17726 0.62914,0.20976 0.95269,0.0148 1.00582,-0.78645 -0.0246,0.0296 -2.63048,1.47754 -0.0561,0.0295 0.0985,-0.0827 0.14181,-0.13 0.1236,-0.13541 0.21124,-0.30873 0.30283,-0.4658 0.11571,-0.24669 0.0576,-0.11375 0.17086,-0.40032 0,0 3.11179,-1.44927 3.11179,-1.44927 v 0 c -0.10192,0.29593 -0.0537,0.15166 -0.14427,0.43282 -0.65365,1.4728 -1.99204,2.12074 -3.67647,2.6511 -0.42297,0.0566 -0.79497,-0.0502 -1.14246,-0.30233 -0.35354,-0.3107 -0.56699,-0.67433 -0.60732,-1.15082 0.01,-0.47714 0.0345,-0.95486 0.10685,-1.42721 0.10833,-0.63066 0.27328,-1.24872 0.40278,-1.87519 0.16889,-0.6834 0.31858,-1.36886 0.37028,-2.07289 0.0778,-0.66877 0.0803,-1.33617 -0.0197,-2.0043 -0.1,-0.57108 -0.24423,-1.13473 -0.6836,-1.54519 0,0 2.94399,-1.80404 2.94399,-1.80404 z"
         id="path2213"
         style="fill:#ff5900;fill-opacity:1;stroke:none;stroke-width:1.30279708" />
      <path
         inkscape:connector-curvature="0"
         d="m 188.34297,216.92351 c -0.20976,-0.5568 -0.56315,-1.033 -0.98169,-1.44897 -0.51687,-0.41411 -0.6962,-0.31415 -1.23222,-0.0197 -1.40422,0.79015 1.50225,-0.86721 2.26285,-1.28382 0.11572,-0.0635 -0.21764,0.14968 -0.32498,0.2265 -0.29248,0.20828 -0.5503,0.41509 -0.79753,0.67497 -0.34222,0.4279 -0.43922,0.94417 -0.48353,1.47443 0.005,0.52879 -0.0783,1.05004 -0.14329,1.57316 -0.0601,0.48649 -0.0773,0.97686 -0.0872,1.4667 -0.005,0.46531 -0.005,0.93102 -0.005,1.39658 -3e-4,0.41755 0.005,0.83515 0.005,1.2528 -0.0246,0.48304 -0.0148,0.93861 0.16003,1.39348 0.22257,0.50028 0.57059,0.84244 1.08224,1.02488 0.37865,0.11866 0.77961,0.10586 1.172,0.10586 1.08041,-0.26294 2.92449,-1.49151 -2.32573,1.3957 -0.0842,0.0443 0.16495,-0.1 0.23979,-0.16102 0.22601,-0.18464 0.30233,-0.3043 0.48797,-0.53292 0.40327,-0.48599 0.71717,-1.02738 1.0003,-1.58886 0,0 3.10682,-1.40357 3.10682,-1.40357 v 0 c -0.2915,0.57187 -0.57118,1.15033 -0.98336,1.64933 -0.005,0.01 -0.41854,0.58462 -0.43577,0.60387 -0.0645,0.0744 -0.13246,0.15018 -0.21715,0.19991 -1.27993,0.75297 -2.2469,1.81458 -3.65855,1.8556 -0.42494,-0.01 -0.8517,-0.0345 -1.2431,-0.22158 -0.55065,-0.27574 -0.95087,-0.69655 -1.21415,-1.25793 -0.20287,-0.48747 -0.27673,-0.97179 -0.23931,-1.49944 -0.001,-0.41854 0.004,-0.83752 0.003,-1.2563 -5.4e-4,-0.46777 -0.001,-0.93521 0.003,-1.40278 0.01,-0.50136 0.0197,-1.00321 0.0783,-1.50186 0.0616,-0.51766 0.16299,-1.03152 0.14674,-1.55489 0.0295,-0.58295 0.10537,-1.16299 0.41361,-1.6737 0.28953,-0.41164 0.6669,-0.73736 1.10021,-0.99809 3.01967,-1.81664 2.14537,-1.37925 3.57671,-2.07722 0.6477,-0.22108 0.98617,-0.10192 1.47655,0.35797 0.42395,0.46827 0.79522,0.97746 1.07446,1.54657 0,0 -3.01612,1.68424 -3.01612,1.68424 z"
         id="path2219"
         style="fill:#ff5900;fill-opacity:1;stroke:none;stroke-width:1.30279708" />
      <path
         inkscape:connector-curvature="0"
         d="m 194.93063,211.44595 c -0.0443,1.04787 -0.21567,2.08736 -0.37028,3.12371 -0.13442,1.13748 -0.4205,2.24769 -0.62194,3.3734 -0.11769,0.74396 -0.259,1.48325 -0.3437,2.23203 -0.0532,0.50279 -0.062,1.00848 -0.0665,1.51358 -0.001,0.46334 1.5e-4,0.92634 0.001,1.38954 0.003,0.45497 -0.003,0.90965 0.004,1.36438 -0.0197,0.26786 -0.005,0.14427 -0.0394,0.37077 0,0 -3.1209,1.48482 -3.1209,1.48482 v 0 c 0.0778,-0.17431 0.0443,-0.0778 0.0936,-0.29297 0.005,-0.45547 9.3e-4,-0.91118 0.001,-1.3668 -8.9e-4,-0.46432 -0.003,-0.92856 -0.001,-1.39288 0.004,-0.51864 0.01,-1.03812 0.066,-1.5544 0.0891,-0.76203 0.23782,-1.51372 0.36683,-2.2697 0.21715,-1.1268 0.52721,-2.23518 0.65888,-3.37764 0.14673,-1.00301 0.32793,-2.01897 0.30282,-3.03429 0,0 3.06866,-1.56355 3.06866,-1.56355 z"
         id="path2221"
         style="fill:#ff5900;fill-opacity:1;stroke:none;stroke-width:1.30279708" />
      <path
         inkscape:connector-curvature="0"
         d="m 126.46064,209.70996 c 2.51486,0.0773 5.03149,0.0881 7.54734,0.095 3.01553,0.005 6.03111,-0.005 9.04644,-0.0443 1.48482,-0.0246 2.96979,-0.0345 4.45476,-0.0296 1.86007,0.01 3.72005,0.0296 5.58017,0.0296 1.99563,6.9e-4 3.99126,-0.005 5.98689,-0.0148 1.54322,-0.005 3.08649,-0.01 4.62971,-0.01 1.33591,-0.004 2.67183,-2.5e-4 4.0077,-0.005 1.13581,0 2.27152,-0.005 3.40728,-0.005 1.18564,0.003 2.37123,0.005 3.55687,0.005 1.13832,0.001 2.27664,-0.004 3.41497,-0.01 0.83914,6e-4 1.67833,-0.004 2.51747,-0.005 0.7379,-0.004 1.47581,-7.9e-4 2.21371,0.004 0.88779,0.01 1.77558,10e-4 2.66342,-0.003 0.69723,-0.003 1.39451,-0.004 2.09179,-0.004 0.65691,-2.9e-4 1.31381,-2.5e-4 1.97072,-2.5e-4 0.73554,0.004 1.47103,0.004 2.20657,0.003 0.77794,0.005 1.55592,0.001 2.33386,-3.4e-4 0.69196,-6.9e-4 1.38388,-0.004 2.07579,3.9e-4 0.83107,0.01 1.66218,0.004 2.4933,8.4e-4 0.6926,-0.003 1.38526,-0.003 2.07791,-0.004 0.6575,-2.9e-4 1.31499,-2.5e-4 1.97249,-2.5e-4 0.65744,0 1.31489,5e-5 1.97229,5e-5 0.62849,0.003 1.25699,-0.001 1.88543,-0.004 0,0 -3.94054,2.86299 -3.94054,2.86299 v 0 c -0.62505,-0.003 -1.25005,-0.005 -1.87515,-0.004 -0.65744,0 -1.31494,0 -1.97243,0 -0.65725,5e-5 -1.31455,5e-5 -1.97185,-2e-4 -0.68946,-4.4e-4 -1.37891,-0.001 -2.06836,-0.004 -0.83185,-0.003 -1.66376,-0.01 -2.49556,8.4e-4 -0.69231,0.005 -1.38467,0.001 -2.07698,4.4e-4 -0.77759,-0.001 -1.55523,-0.005 -2.33282,-3.4e-4 -0.73815,-0.001 -1.47625,-7.4e-4 -2.21435,0.003 -0.65671,5e-5 -1.31342,1e-4 -1.97008,-2e-4 -0.69344,-4.9e-4 -1.38688,-0.001 -2.08027,-0.004 -0.88582,-0.004 -1.77169,-0.01 -2.65746,-0.003 -0.74145,0.005 -1.48295,0.01 -2.2244,0.004 -0.83274,-0.003 -1.66543,-0.01 -2.49817,-0.005 -1.12788,-0.01 -2.25571,-0.0148 -3.38364,-0.01 -1.19214,10e-4 -2.38428,0.004 -3.57647,0.005 -1.13015,-5e-5 -2.2603,-0.005 -3.39044,-0.005 -1.33001,-0.005 -2.66007,-0.003 -3.99013,-0.005 -1.53332,-0.003 -3.06669,-0.005 -4.60001,-0.01 -1.9814,-0.01 -3.9628,-0.0148 -5.94425,-0.0148 -1.88686,0.001 -3.77358,0.0197 -5.66039,0.0295 -1.4568,0.004 -2.91365,-0.005 -4.37031,-0.0295 -2.97638,-0.0394 -5.95306,-0.0492 -8.92969,-0.0443 -2.60295,0.005 -5.20655,0.0197 -7.80861,0.095 0,0 3.92548,-2.85201 3.92548,-2.85201 z"
         id="path2235"
         style="fill:#ff5900;fill-opacity:1;stroke:none;stroke-width:1.30279708" />
    </g>
  </g>
</svg>
